<?xml version="1.0" standalone="no"?>
<!DOCTYPE svg PUBLIC "-//W3C//DTD SVG 20010904//EN"
 "http://www.w3.org/TR/2001/REC-SVG-20010904/DTD/svg10.dtd">
<svg version="1.0" xmlns="http://www.w3.org/2000/svg"
 width="740.000000pt" height="740.000000pt" viewBox="0 0 740.000000 740.000000"
 preserveAspectRatio="xMidYMid meet">

<g transform="translate(0.000000,740.000000) scale(0.100000,-0.100000)"
fill="#000000" stroke="none">
<path d="M3457 7100 c-325 -25 -664 -115 -996 -264 -467 -208 -898 -559 -1178
-956 -215 -306 -369 -680 -428 -1040 -21 -131 -38 -468 -33 -679 4 -200 5
-204 86 -288 91 -95 205 -155 326 -173 l51 -8 -41 -1 c-60 -2 -161 32 -230 77
-57 38 -145 124 -251 249 -44 51 -175 153 -197 153 -12 0 -6 -198 9 -253 38
-146 155 -291 283 -352 l64 -29 -4 -62 -3 -61 130 -44 c264 -88 460 -215 621
-400 110 -128 102 -139 -17 -23 -177 172 -277 246 -433 320 -118 55 -210 80
-374 99 -74 8 -159 24 -190 35 l-57 19 60 -54 c33 -30 104 -82 157 -117 l97
-63 -2 -625 -2 -625 -157 -3 c-156 -2 -157 -3 -177 -29 -45 -56 -19 -130 72
-204 29 -24 75 -65 104 -92 l51 -50 199 1 c110 0 203 -2 209 -6 5 -4 29 -32
54 -62 258 -317 569 -564 956 -758 358 -179 721 -283 1121 -322 145 -14 544
-14 698 0 610 55 1166 268 1638 627 114 87 392 354 469 451 l50 62 200 0 199
0 112 101 c120 108 153 157 142 210 -12 54 -45 69 -157 69 l-100 0 3 1313 3
1312 -28 150 c-89 486 -200 782 -414 1104 -278 421 -655 749 -1127 981 -326
160 -625 254 -950 296 -137 17 -475 25 -618 14z m553 -245 c149 -17 294 -45
450 -86 495 -131 1027 -443 1265 -741 l37 -48 -1303 0 c-1432 0 -1346 -4
-1188 58 129 52 218 67 374 65 77 -1 173 -6 213 -11 39 -4 72 -7 72 -5 0 8
-84 36 -150 50 -98 20 -291 13 -408 -16 -90 -23 -217 -77 -266 -115 -31 -23
-31 -23 -416 -28 -212 -3 -404 -3 -426 0 l-42 4 -11 86 c-6 53 -8 150 -4 245
l6 158 181 89 c339 166 668 261 1036 299 140 14 444 12 580 -4z m-1941 -552
c37 -44 66 -118 87 -217 8 -39 17 -79 20 -88 5 -17 -12 -18 -260 -18 l-265 0
187 180 c103 99 190 180 194 180 3 0 20 -17 37 -37z m3888 -308 c151 -187 310
-454 391 -660 86 -220 125 -368 172 -658 l30 -188 0 -1279 0 -1280 -45 0 -45
0 0 1233 0 1233 -40 219 c-23 121 -52 270 -67 330 -69 295 -193 560 -421 907
-129 196 -232 376 -232 404 0 15 189 -178 257 -261z m-3763 -87 c9 -36 7 -75
-6 -103 -12 -26 -23 -32 -33 -15 -4 6 -104 10 -267 10 l-260 0 58 -63 c34 -35
76 -96 98 -140 34 -67 40 -86 39 -140 -1 -69 -21 -133 -59 -190 -24 -37 -25
-39 -7 -53 10 -7 22 -14 27 -14 5 0 2 -8 -6 -17 -9 -10 -21 -34 -27 -53 -12
-39 -77 -125 -84 -113 -3 4 -10 34 -17 65 -13 56 -12 59 13 97 15 23 27 44 27
49 0 4 -24 16 -52 26 -116 41 -226 89 -280 124 -65 42 -65 38 -17 161 33 84
59 124 179 280 l85 111 291 0 292 0 6 -22z m806 9 c-8 -7 -47 -41 -85 -74
l-71 -61 -157 68 c-87 38 -163 71 -170 74 -7 2 103 5 243 5 210 1 252 -1 240
-12z m2831 -27 c16 -19 30 -46 31 -60 l3 -25 -1403 -2 c-868 -1 -1429 -6
-1474 -12 -40 -5 -73 -9 -75 -8 -1 2 35 35 80 74 l82 72 1364 -2 1364 -2 28
-35z m-3363 4 c69 -23 342 -148 342 -156 0 -2 -46 -51 -103 -108 -57 -58 -129
-144 -161 -192 l-59 -87 -29 46 c-16 25 -64 90 -106 145 -42 54 -89 116 -104
136 l-28 37 16 65 c18 79 36 107 77 125 45 20 68 18 155 -11z m610 -151 c-121
-239 -123 -245 -123 -325 0 -72 2 -79 30 -108 17 -17 49 -43 72 -58 23 -15 44
-34 46 -42 8 -33 69 121 87 220 10 58 25 109 34 119 9 10 38 24 64 30 26 7 70
18 97 26 28 8 80 16 118 18 l67 3 -2 -771 -3 -770 -80 0 -80 0 0 622 c0 453
-3 625 -11 633 -21 21 -49 7 -45 -20 7 -50 12 -1008 6 -1118 l-7 -112 -506 2
-507 3 3 50 c2 28 14 109 27 180 18 105 32 151 72 240 27 61 55 124 62 142 25
63 308 297 420 347 49 23 54 38 9 30 -63 -12 -134 -51 -253 -141 -173 -131
-198 -159 -240 -267 -52 -133 -58 -137 -51 -33 8 114 50 360 87 507 44 176
116 297 264 446 84 85 155 129 229 144 54 10 119 12 114 3z m-768 -223 c49
-63 102 -137 117 -166 l27 -52 -31 -134 c-18 -73 -40 -175 -49 -226 -9 -51
-18 -91 -20 -90 -1 2 -26 95 -54 208 -28 113 -60 229 -70 258 -16 43 -20 79
-20 189 0 75 2 134 5 131 3 -2 45 -56 95 -118z m1452 97 c10 -10 12 -38 7
-118 -4 -57 -7 -400 -8 -761 l-1 -658 -90 0 -90 0 0 769 0 770 23 4 c52 10
146 7 159 -6z m-1847 -131 c70 -130 206 -478 192 -492 -3 -3 -8 5 -12 18 -13
42 -177 421 -222 513 -52 107 -23 79 42 -39z m86 42 c166 -123 168 -128 275
-573 59 -249 63 -280 46 -430 l-7 -60 -34 70 c-55 117 -78 183 -111 335 -17
80 -48 195 -67 255 -40 123 -134 338 -187 426 -19 33 -33 59 -30 59 2 0 54
-37 115 -82z m1969 -233 l0 -135 -80 0 -80 0 0 135 0 135 80 0 80 0 0 -135z
m240 0 l0 -135 -110 0 -110 0 0 135 0 135 110 0 110 0 0 -135z m218 3 l-3
-133 -97 -3 -98 -3 0 136 0 135 100 0 101 0 -3 -132z m185 126 l38 -7 -3 -126
-3 -126 -85 0 -85 0 -3 119 c-1 66 0 126 2 133 6 14 74 17 139 7z m297 -134
l0 -131 -107 3 -108 3 -3 114 c-1 63 0 121 2 128 4 10 33 13 111 13 l105 0 0
-130z m255 0 l0 -125 -117 -3 -118 -3 0 131 0 131 118 -3 117 -3 0 -125z m435
-55 l0 -75 -95 0 -95 0 0 75 0 75 95 0 95 0 0 -75z m210 0 l0 -75 -100 0 -100
0 0 68 c0 38 3 72 7 75 3 4 48 7 100 7 l93 0 0 -75z m200 -6 l0 -69 -90 0 -90
0 0 73 0 72 90 -3 90 -3 0 -70z m-2042 -611 l-3 -533 -77 -3 -78 -3 0 536 0
535 80 0 80 0 -2 -532z m242 -3 l0 -536 -112 3 -113 3 -3 370 c-2 204 0 443 3
533 l7 162 109 0 109 0 0 -535z m218 3 l-3 -533 -100 0 -100 0 -3 140 c-2 77
0 317 3 533 l7 392 99 0 99 0 -2 -532z m222 -3 l0 -535 -90 0 -90 0 0 535 0
535 90 0 90 0 0 -535z m261 23 c0 -282 2 -521 4 -530 3 -16 -7 -18 -106 -18
l-109 0 0 530 0 530 105 0 105 0 1 -512z m259 -18 l0 -530 -120 0 -120 0 0
530 0 530 120 0 120 0 0 -530z m432 80 c1 -247 3 -487 3 -532 l0 -83 -95 0
-95 0 -3 533 -2 532 95 0 95 0 2 -450z m208 -85 l0 -535 -95 0 -95 0 -1 298
c0 163 -2 400 -5 526 -2 125 -1 232 2 237 3 5 48 9 100 9 l94 0 0 -535z m203
0 l2 -530 -91 -3 c-81 -2 -92 -1 -96 15 -7 30 -10 996 -3 1024 6 26 8 26 96
25 l90 -1 2 -530z m240 458 c9 -89 9 -852 1 -932 l-7 -62 -91 3 -91 3 -3 528
-2 527 93 0 94 0 6 -67z m-4952 -145 c97 -96 271 -200 466 -277 75 -30 85 -38
118 -86 42 -64 100 -189 82 -178 -6 4 -36 26 -64 50 -70 57 -225 147 -332 193
-107 47 -272 100 -308 100 -26 0 -27 -1 -8 -14 11 -7 74 -35 140 -61 156 -61
321 -143 403 -201 96 -67 191 -154 211 -194 18 -34 51 -138 51 -159 0 -7 -37
-11 -110 -11 l-110 0 0 67 c0 75 -7 74 -40 -9 l-24 -58 -52 0 c-45 0 -57 4
-82 30 -17 17 -39 30 -50 30 -15 0 -31 20 -60 73 -22 40 -64 103 -94 140 l-53
68 -12 -93 c-12 -83 -50 -238 -59 -238 -2 0 -25 15 -51 34 -27 18 -65 40 -86
47 l-39 14 4 425 c2 234 8 433 12 444 8 16 14 12 49 -30 22 -27 67 -75 98
-106z m169 55 c121 -49 157 -73 249 -159 93 -87 108 -116 25 -49 -30 25 -104
68 -165 97 -60 28 -108 53 -105 55 2 2 38 -12 80 -31 42 -19 74 -31 71 -25 -9
14 -112 64 -175 84 -73 23 -170 66 -170 75 0 14 106 -12 190 -47z m460 -14
c170 -54 183 -62 199 -135 7 -33 24 -97 38 -143 22 -77 23 -90 13 -160 -6 -42
-15 -123 -18 -181 l-7 -105 -17 72 c-21 89 -82 254 -114 311 -17 29 -40 50
-73 66 -33 17 -52 35 -61 57 -24 57 -107 176 -144 205 -20 16 -36 32 -36 36 0
11 54 27 75 21 11 -2 76 -22 145 -44z m4385 -170 c18 -96 48 -234 65 -307 28
-120 30 -146 28 -270 l-3 -137 -67 -3 -68 -3 0 452 c0 249 2 450 5 447 3 -3
21 -84 40 -179z m-4846 100 c134 -71 311 -180 311 -191 0 -18 -242 105 -340
173 -139 97 -130 102 29 18z m263 -9 c25 -22 60 -62 77 -88 35 -56 42 -79 9
-36 -11 16 -51 59 -87 97 -72 73 -71 91 1 27z m252 -280 c46 -55 153 -425 144
-498 -3 -21 -9 -11 -27 48 -50 166 -79 240 -137 357 l-60 123 27 0 c18 0 36
-10 53 -30z m291 -166 l37 -87 -11 -96 c-22 -184 -17 -171 -63 -171 l-41 0 7
128 c13 245 19 321 26 317 4 -3 24 -44 45 -91z m3035 26 c8 -19 27 -57 42 -83
28 -47 28 -51 17 -110 -6 -34 -8 -90 -5 -124 l7 -63 -76 0 -75 0 0 88 c0 48
-5 104 -10 124 -10 34 -7 44 30 116 22 44 40 85 40 93 0 19 15 0 30 -41z
m-4133 -381 c96 -46 199 -175 218 -274 4 -20 -1 -14 -15 19 -70 165 -185 259
-335 273 -43 4 -62 9 -53 15 23 15 121 -2 185 -33z m414 -59 c1 -26 -2 -53 -5
-59 -7 -11 -56 -16 -56 -6 0 6 30 122 37 145 8 24 23 -26 24 -80z m-463 23
c64 -36 150 -126 222 -232 55 -79 75 -100 130 -133 106 -64 316 -286 424 -448
57 -86 212 -388 203 -396 -9 -10 -4 -18 -92 146 -97 181 -161 279 -264 402
-96 115 -199 210 -276 257 -56 34 -57 34 -83 17 -105 -69 -222 -101 -345 -94
-113 6 -192 43 -271 129 -53 57 -119 168 -137 233 -12 41 -5 31 42 -64 108
-216 309 -320 516 -267 73 19 203 76 203 89 0 5 -26 53 -57 106 -67 114 -161
212 -248 260 -33 18 -49 30 -35 26 14 -3 44 -17 68 -31z m-411 -112 c90 -161
241 -278 388 -301 l60 -9 -70 3 c-172 8 -309 125 -434 373 -11 23 -21 46 -21
50 1 14 27 -26 77 -116z m1417 59 c9 -22 16 -45 16 -50 0 -6 -68 -10 -177 -10
l-178 0 -43 50 -43 50 204 0 205 0 16 -40z m136 21 c0 -11 -18 -268 -40 -572
-22 -304 -40 -565 -40 -581 0 -15 -5 -28 -12 -28 -8 0 -9 60 -2 243 5 133 9
337 10 452 0 116 5 244 11 285 5 41 7 108 4 148 l-6 72 37 0 c31 0 38 -4 38
-19z m404 -36 l-37 -55 -157 0 c-86 0 -159 2 -161 4 -2 2 -2 27 -1 55 l4 51
194 0 194 0 -36 -55z m3549 48 l187 -6 0 -49 0 -48 -1803 0 -1803 0 -27 55
-27 55 1643 0 c903 0 1726 -3 1830 -7z m-4574 -90 c13 -43 43 -140 67 -217 44
-133 51 -179 21 -119 -26 51 -90 260 -121 396 -14 61 12 14 33 -60z m1126
-123 c70 -230 58 -379 -45 -585 -51 -102 -157 -261 -167 -251 -3 3 26 54 65
113 127 192 173 320 173 482 1 93 -8 141 -47 266 -37 119 -37 121 -26 110 5
-5 26 -66 47 -135z m-98 23 c1 -33 0 -35 -7 -13 -11 34 -12 50 -2 50 4 0 8
-17 9 -37z m69 -111 c37 -194 3 -368 -113 -574 -30 -53 -63 -120 -74 -149 -11
-29 -27 -62 -36 -73 -8 -12 -13 -14 -10 -6 20 55 65 152 120 261 46 89 71 155
87 220 28 122 29 264 0 373 -11 44 -20 82 -19 85 2 19 33 -74 45 -137z m-89
-27 c6 -87 -9 -228 -33 -315 -18 -65 -186 -410 -223 -459 -60 -79 -161 -121
-161 -67 0 90 123 541 186 684 13 30 65 106 116 169 105 132 105 132 115 -12z
m47 -85 c-1 -165 -23 -251 -114 -436 -32 -66 -68 -145 -79 -175 -22 -58 -112
-181 -118 -162 -3 7 13 38 35 70 58 86 196 366 225 459 27 83 50 251 42 301
-2 15 -6 51 -9 78 -4 43 -3 47 7 25 6 -15 11 -79 11 -160z m3331 128 c-79 -63
-136 -132 -175 -212 -42 -86 -53 -82 -20 6 26 71 95 156 161 201 66 45 89 48
34 5z m-2304 -145 c2 -10 3 -390 1 -845 l-2 -828 -154 0 c-111 0 -156 3 -164
13 -8 10 -19 889 -13 1138 1 51 7 67 68 165 92 150 130 223 153 290 11 31 25
63 31 70 17 21 76 18 80 -3z m239 -118 l0 -135 -90 0 -90 0 0 135 0 135 90 0
90 0 0 -135z m230 0 l0 -135 -105 0 -105 0 0 135 0 135 105 0 105 0 0 -135z
m230 0 l0 -136 -86 3 -87 3 1 130 c1 72 1 131 1 133 1 1 39 2 86 2 l85 0 0
-135z m238 3 l-3 -133 -87 -3 -88 -3 0 136 0 135 90 0 91 0 -3 -132z m255 125
c2 -5 2 -63 -1 -130 l-4 -123 -99 0 -99 0 0 130 0 130 99 0 c55 0 102 -3 104
-7z m517 -283 l0 -70 -145 0 -145 0 0 70 0 70 145 0 145 0 0 -70z m270 0 l0
-70 -125 0 -125 0 0 70 0 70 125 0 125 0 0 -70z m310 0 l0 -70 -140 0 -140 0
0 70 0 70 140 0 140 0 0 -70z m250 0 l0 -70 -110 0 -110 0 0 70 0 70 110 0
110 0 0 -70z m138 3 l-4 -68 -62 -3 -62 -3 0 71 0 70 66 0 65 0 -3 -67z
m-2438 -73 l0 -80 -90 0 -90 0 0 80 0 80 90 0 90 0 0 -80z m230 0 l0 -80 -105
0 -105 0 0 80 0 80 105 0 105 0 0 -80z m230 0 l0 -80 -90 0 -90 0 0 80 0 80
90 0 90 0 0 -80z m238 -2 l3 -78 -91 0 -90 0 0 80 0 81 88 -3 87 -3 3 -77z
m257 2 l0 -75 -102 -3 -102 -3 -6 46 c-4 24 -4 61 -1 80 l7 36 102 -3 102 -3
0 -75z m-2019 -2 c109 -118 200 -279 257 -453 69 -211 69 -214 74 -557 l5
-318 -320 0 -320 0 -31 26 c-43 36 -90 137 -97 210 -15 144 55 342 198 566 42
65 48 80 38 97 -10 19 -20 21 -100 21 -50 0 -90 3 -90 8 0 4 30 41 67 82 76
87 155 204 207 308 20 39 40 72 45 72 5 0 35 -28 67 -62z m2529 -103 l0 -90
-142 -3 -143 -3 0 96 0 96 143 -3 142 -3 0 -90z m275 5 l0 -90 -125 0 -125 0
0 90 0 90 125 0 125 0 0 -90z m310 0 l0 -90 -146 0 -147 0 6 68 c4 37 7 77 7
90 0 22 2 22 140 22 l140 0 0 -90z m248 -2 l3 -88 -101 0 c-55 0 -103 -1 -107
-2 -5 -2 -9 39 -11 90 l-3 93 108 -3 108 -3 3 -87z m137 -3 l0 -90 -62 -3 -63
-3 0 96 0 96 63 -3 62 -3 0 -90z m-2435 -520 l0 -525 -90 0 -90 0 0 525 0 525
90 0 90 0 0 -525z m230 0 l0 -526 -107 3 -107 3 1 30 c0 17 1 252 2 523 l1
492 105 0 105 0 0 -525z m230 0 l0 -525 -90 0 -90 0 0 525 0 525 90 0 90 0 0
-525z m240 6 c0 -464 -2 -520 -16 -525 -9 -3 -49 -6 -90 -6 l-74 0 0 525 0
525 90 0 90 0 0 -519z m260 -1 l0 -520 -105 0 -105 0 0 520 0 520 105 0 105 0
0 -520z m780 305 l0 -105 -125 0 -125 0 0 99 0 100 48 4 c26 2 82 4 125 5 l77
2 0 -105z m310 0 l0 -106 -142 3 -143 3 -1 95 c-1 52 0 98 3 103 2 4 67 7 144
7 l139 0 0 -105z m250 5 c0 -95 -1 -101 -22 -110 l-23 -9 23 0 c20 -1 23 -5
20 -33 l-3 -33 -106 -3 c-104 -3 -107 -2 -113 20 -10 37 -7 48 12 49 10 0 12
3 5 6 -9 3 -13 35 -13 109 l0 104 110 0 110 0 0 -100z m137 -47 l1 -143 -64 0
-64 0 0 35 c0 31 3 35 28 36 l27 1 -25 7 c-24 7 -25 10 -28 109 l-3 103 63 -3
63 -3 2 -142z m-969 40 l-3 -98 -142 -3 -143 -3 0 101 0 100 145 0 146 0 -3
-97z m2 -148 l0 -35 -145 0 -145 0 0 35 0 35 145 0 145 0 0 -35z m270 0 l0
-35 -125 0 -125 0 0 35 0 35 125 0 125 0 0 -35z m310 0 l0 -35 -145 0 -145 0
0 35 0 35 145 0 145 0 0 -35z m-3380 -6 c0 -23 -71 -119 -92 -124 -13 -3 -232
-4 -488 -3 l-464 3 -39 50 c-73 95 -133 85 513 85 379 0 570 -4 570 -11z
m2800 -135 l0 -74 -145 0 -145 0 0 74 c0 61 3 75 16 78 9 2 75 2 145 0 l129
-3 0 -75z m213 76 l57 0 0 -75 0 -75 -125 0 -125 0 0 74 0 75 33 4 c17 3 48 3
67 1 19 -2 61 -4 93 -4z m260 0 l107 0 0 -75 0 -75 -145 0 -145 0 0 70 c0 74
13 95 55 85 11 -3 68 -5 128 -5z m355 -72 l3 -78 -111 0 -110 0 0 73 c0 41 3
77 7 81 4 4 52 5 107 4 l101 -3 3 -77z m140 0 l3 -78 -66 0 -65 0 0 80 0 81
63 -3 62 -3 3 -77z m-3896 -98 l-37 -80 -385 0 -385 0 -40 73 c-22 39 -41 75
-43 79 -2 5 206 8 461 8 l465 0 -36 -80z m2926 -127 l-3 -138 -142 -3 -143 -3
0 141 0 140 145 0 146 0 -3 -137z m272 -3 l0 -140 -125 0 -125 0 0 140 0 140
125 0 125 0 0 -140z m310 0 l0 -140 -139 0 c-164 0 -148 -18 -143 163 l3 117
140 0 139 0 0 -140z m250 0 l0 -140 -110 0 -110 0 0 140 0 140 110 0 110 0 0
-140z m140 0 l0 -140 -65 0 -65 0 0 140 0 140 65 0 65 0 0 -140z m-3963 -42
c-10 -35 -21 -69 -23 -75 -3 -10 -76 -13 -323 -13 -176 0 -322 4 -325 8 -2 4
-16 38 -30 75 l-25 67 373 0 373 0 -20 -62z m2993 -193 l0 -85 -145 0 -145 0
0 85 0 85 145 0 145 0 0 -85z m270 0 l0 -85 -125 0 -125 0 0 85 0 85 125 0
125 0 0 -85z m310 0 l0 -85 -145 0 -145 0 0 85 0 85 145 0 145 0 0 -85z m250
0 l0 -85 -115 0 -115 0 0 85 0 85 115 0 115 0 0 -85z m140 0 l0 -85 -65 0 -65
0 0 85 0 85 65 0 65 0 0 -85z m-3990 6 c0 -33 3 -66 6 -75 6 -14 -26 -16 -315
-16 l-321 0 0 75 0 75 315 0 315 0 0 -59z m30 -158 c12 -27 35 -63 52 -80 l32
-33 -397 0 -397 0 15 38 c7 20 19 56 25 80 l11 42 319 0 319 0 21 -47z m2987
-35 l-4 -83 -142 -3 -141 -3 0 86 0 85 146 0 146 0 -5 -82z m275 36 c2 -25 2
-63 0 -85 l-4 -38 -124 5 c-68 2 -124 6 -124 9 0 3 0 39 0 80 l0 75 124 0 124
0 4 -46z m308 -38 l0 -84 -142 4 -143 4 0 67 c0 38 1 74 3 81 3 9 41 12 143
12 l139 0 0 -84z m242 68 c2 -9 2 -47 0 -85 l-4 -69 -104 0 -104 0 0 85 0 85
104 0 c88 0 105 -3 108 -16z m146 -66 l-3 -83 -62 -3 -63 -3 0 86 0 85 65 0
66 0 -3 -82z m-2208 -3 l0 -75 -205 0 -205 0 0 75 0 75 205 0 205 0 0 -75z
m230 0 l0 -75 -90 0 -90 0 0 68 c0 38 3 72 7 75 3 4 44 7 90 7 l83 0 0 -75z
m495 0 l0 -70 -222 -3 -223 -2 0 68 c0 38 3 72 7 76 4 3 104 5 222 4 l216 -3
0 -70z m1849 -131 c10 -4 16 -18 16 -41 0 -38 0 -38 -141 -165 l-74 -68 -2872
1 -2871 1 -34 30 c-18 16 -48 42 -67 57 l-35 26 80 6 79 5 -91 2 -92 2 -36 40
c-37 41 -46 76 -24 98 9 9 707 12 3079 12 1687 0 3074 -3 3083 -6z m-5217
-462 c228 -228 453 -388 748 -532 358 -175 672 -262 1090 -300 305 -28 777 5
1080 75 382 89 794 289 1124 545 52 40 158 135 236 211 l142 139 77 0 77 0
-44 -57 c-62 -80 -273 -284 -398 -383 -255 -204 -559 -374 -869 -487 -199 -72
-500 -139 -740 -163 -134 -13 -601 -14 -750 0 -595 53 -1195 296 -1645 667
-166 137 -405 387 -405 424 0 5 29 9 65 9 l65 0 147 -148z"/>
<path d="M2983 5059 c-2 -23 3 -25 10 -4 4 8 3 16 -1 19 -4 3 -9 -4 -9 -15z"/>
<path d="M888 1723 c12 -2 30 -2 40 0 9 3 -1 5 -23 4 -22 0 -30 -2 -17 -4z"/>
<path d="M5063 1723 c59 -2 154 -2 210 0 56 1 8 3 -108 3 -115 0 -161 -2 -102
-3z"/>
<path d="M5708 1723 c105 -2 279 -2 385 0 105 1 19 2 -193 2 -212 0 -298 -1
-192 -2z"/>
</g>
</svg>
